<svg xmlns="http://www.w3.org/2000/svg" xmlns:xlink="http://www.w3.org/1999/xlink" width="500" zoomAndPan="magnify" viewBox="0 0 375 374.999991" height="500" preserveAspectRatio="xMidYMid meet" version="1.0"><defs><clipPath id="fc857f5ad8"><path d="M 1.40625 7.148438 L 375 7.148438 L 375 375 L 1.40625 375 Z M 1.40625 7.148438 " clip-rule="nonzero"/></clipPath><clipPath id="d67b007859"><path d="M 188.203125 7.148438 C 85.039062 7.148438 1.40625 90.78125 1.40625 193.945312 C 1.40625 297.113281 85.039062 380.742188 188.203125 380.742188 C 291.367188 380.742188 375 297.113281 375 193.945312 C 375 90.78125 291.367188 7.148438 188.203125 7.148438 " clip-rule="nonzero"/></clipPath></defs><g clip-path="url(#fc857f5ad8)"><g clip-path="url(#d67b007859)"><path fill="#353737" d="M 1.40625 7.148438 L 375 7.148438 L 375 380.742188 L 1.40625 380.742188 Z M 1.40625 7.148438 " fill-opacity="1" fill-rule="nonzero"/></g></g><path fill="#ffcc00" d="M 375.203125 198.539062 C 374.867188 200.574219 373.148438 201.726562 371.664062 202.675781 C 363.929688 207.574219 357.746094 214.472656 349.894531 219.261719 C 346.4375 221.371094 343.53125 224.375 340.355469 226.949219 C 338.316406 228.605469 336.25 230.226562 333.890625 232.113281 C 335.765625 234.5625 337.605469 237.007812 339.484375 239.414062 C 341.703125 242.25 343.96875 245.042969 346.175781 247.890625 C 346.453125 248.246094 346.660156 248.789062 346.613281 249.222656 C 346.546875 249.894531 346.421875 250.726562 345.980469 251.136719 C 345.550781 251.546875 344.691406 251.703125 344.039062 251.667969 C 342.726562 251.589844 341.785156 250.683594 341.234375 249.609375 C 338.113281 243.5625 333.269531 238.847656 328.859375 233.847656 C 326.191406 230.824219 323.726562 227.351562 320.359375 225.199219 C 317.078125 223.097656 314.457031 220.296875 311.359375 218.027344 C 306.902344 214.773438 302.714844 211.121094 297.945312 208.3125 C 289.503906 203.34375 281.226562 198.046875 271.726562 195.144531 C 268.53125 194.167969 265.363281 192.953125 262.390625 191.433594 C 259.121094 189.773438 255.550781 189.160156 252.117188 188.277344 C 249.820312 187.679688 247.503906 186.980469 245.210938 186.359375 C 243.109375 185.796875 241.082031 185.296875 238.898438 185.109375 C 236.296875 184.878906 233.742188 184.097656 231.140625 183.761719 C 228.773438 183.457031 226.382812 183.636719 224.035156 182.71875 C 222.535156 182.136719 220.710938 182.285156 219.027344 182.273438 C 210.078125 182.210938 201.136719 182.144531 192.1875 182.21875 C 189.089844 182.242188 185.902344 181.824219 182.933594 183.359375 C 182.347656 183.664062 181.503906 183.546875 180.78125 183.539062 C 174.492188 183.484375 168.480469 185.085938 162.355469 186.226562 C 154.300781 187.722656 146.6875 190.578125 138.804688 192.550781 C 130.636719 194.601562 123.304688 198.867188 115.335938 201.4375 C 112.121094 204.089844 107.890625 204.714844 104.441406 206.914062 C 101.007812 209.101562 97.503906 211.195312 94.023438 213.328125 C 93.613281 213.578125 93.207031 213.832031 92.765625 214.027344 C 85.457031 217.320312 79.457031 222.570312 73.027344 227.179688 C 72.253906 227.738281 71.410156 228.21875 70.613281 228.746094 C 66.589844 231.417969 62.925781 234.488281 59.4375 237.855469 C 54.097656 243.011719 48.484375 247.890625 43.03125 252.84375 C 41.742188 252.238281 40.386719 251.828125 41.242188 250.265625 C 42.039062 248.796875 43.074219 247.464844 44.023438 246.078125 C 44.984375 244.664062 44.804688 243.40625 43.3125 242.414062 C 38.710938 239.351562 34.300781 236.066406 30.269531 232.253906 C 28.1875 230.289062 25.925781 228.417969 23.472656 226.941406 C 18.054688 223.679688 14.375 218.347656 8.957031 215.097656 C 7.78125 214.390625 6.976562 213.066406 5.949219 211.964844 C 6.566406 211.277344 7.035156 210.75 7.691406 210.011719 C 21.796875 219.628906 34.859375 230.496094 48.507812 241.183594 C 49.617188 240.574219 51.046875 240.121094 52.03125 239.195312 C 56.957031 234.585938 61.582031 229.65625 67.171875 225.78125 C 68.109375 225.132812 68.757812 224.058594 69.257812 223.5 C 69.480469 221.855469 68.667969 221.199219 67.984375 220.574219 C 63 216.039062 58.691406 210.808594 53.105469 206.851562 C 49.992188 204.648438 47.539062 201.503906 44.753906 198.824219 C 35.007812 189.46875 24.664062 180.746094 15.34375 170.941406 C 10.457031 167.738281 6.613281 163.386719 2.519531 159.304688 C 1.449219 158.242188 0.695312 157.027344 1.640625 155.476562 C 2.066406 155.476562 2.625 155.300781 2.855469 155.5 C 9.90625 161.652344 16.921875 167.835938 23.949219 174.019531 C 25.96875 177.78125 30.164062 179.21875 32.824219 182.359375 C 35.46875 185.480469 38.390625 188.484375 41.617188 190.980469 C 49.097656 196.761719 55.25 203.941406 62.320312 210.117188 C 65.765625 213.117188 69.265625 216.046875 72.632812 219.144531 C 73.578125 220.015625 74.882812 220.054688 76.007812 219.359375 C 77.03125 218.726562 77.910156 217.878906 78.898438 217.191406 C 85.621094 212.597656 92.386719 208.082031 99.671875 204.617188 C 99.777344 201.855469 97.71875 200.453125 96.550781 198.832031 C 86.574219 185.019531 76.300781 171.433594 66.226562 157.691406 C 59.429688 148.417969 53.007812 138.867188 46.042969 129.726562 C 42.40625 124.953125 38.867188 120.101562 35.28125 115.289062 C 31.273438 109.898438 27.414062 104.394531 23.5625 98.878906 C 22.914062 97.949219 22.601562 96.789062 22.152344 95.773438 C 23.824219 94.597656 25.214844 94.894531 26.191406 96.175781 C 30.992188 102.472656 35.765625 108.78125 40.445312 115.164062 C 47.679688 125.035156 54.902344 134.910156 61.964844 144.90625 C 64.585938 148.617188 67.902344 151.871094 69.707031 156.15625 C 69.890625 156.59375 70.121094 157.050781 70.441406 157.390625 C 75.753906 163.007812 79.605469 169.71875 84.277344 175.820312 C 87.773438 180.386719 91.023438 185.148438 94.398438 189.808594 C 97.339844 193.878906 100.304688 197.9375 103.242188 201.972656 C 112.265625 198.078125 121.054688 194.285156 129.988281 190.429688 C 127.933594 185.371094 125.863281 180.640625 123.253906 176.058594 C 119.082031 168.75 115.511719 161.09375 111.742188 153.554688 C 104.089844 138.261719 96.476562 122.957031 88.847656 107.65625 C 88.308594 106.574219 87.667969 105.53125 87.265625 104.40625 C 86.902344 103.410156 87.4375 102.558594 88.214844 101.890625 C 88.941406 101.25 90.066406 101.449219 90.546875 102.507812 C 92.699219 107.320312 95.871094 111.589844 97.816406 116.519531 C 98.6875 118.71875 100.523438 120.535156 101.421875 122.726562 C 104.15625 129.371094 108.324219 135.304688 110.699219 142.144531 C 111.871094 145.519531 113.925781 148.585938 115.542969 151.8125 C 117.777344 156.273438 120.648438 160.394531 122.21875 165.226562 C 123.089844 167.910156 124.683594 170.414062 126.242188 172.8125 C 129.140625 177.265625 130.535156 182.414062 133.058594 187.023438 C 133.402344 187.648438 133.761719 188.261719 134.199219 189.035156 C 141.792969 186.898438 149.339844 184.804688 156.863281 182.636719 C 157.746094 182.382812 158.519531 181.75 159.265625 181.339844 C 159.949219 177.394531 158.167969 174.070312 157.214844 170.6875 C 153.921875 158.957031 151.023438 147.097656 147.445312 135.476562 C 143.15625 121.527344 139.945312 107.289062 135.59375 93.355469 C 133.402344 86.335938 131.128906 79.246094 130.09375 71.847656 C 129.640625 68.585938 128.296875 65.390625 127.261719 62.238281 C 126.121094 58.777344 126.398438 55.109375 124.953125 51.742188 C 124.410156 50.46875 125.757812 49.664062 126.832031 49.097656 C 128.984375 49.890625 129.667969 51.953125 130.011719 53.695312 C 130.980469 58.648438 133.378906 63.132812 134.402344 68.058594 C 136.964844 80.453125 140.980469 92.472656 143.707031 104.832031 C 145.503906 112.972656 147.804688 121.003906 150.234375 128.996094 C 152.730469 137.214844 154.496094 145.652344 156.617188 153.980469 C 157.796875 158.605469 159.109375 163.203125 160.269531 167.828125 C 161.148438 171.300781 161.835938 174.816406 162.722656 178.285156 C 163.109375 179.792969 164.382812 180.601562 165.984375 180.625 C 167.191406 180.648438 168.488281 180.855469 169.597656 180.515625 C 175.542969 178.660156 181.988281 179.53125 187.832031 177.109375 C 188.710938 175.820312 188.390625 174.339844 188.390625 172.929688 C 188.390625 167.375 188.359375 161.808594 188.277344 156.253906 C 188.234375 153.382812 188.53125 150.546875 187.375 147.695312 C 186.691406 146.011719 187.0625 143.878906 187.046875 141.949219 C 186.972656 132.527344 186.945312 123.097656 186.875 113.675781 C 186.863281 111.261719 187.277344 108.683594 186.578125 106.480469 C 185.839844 104.15625 187.441406 101.851562 185.878906 99.519531 C 185.089844 98.335938 185.65625 96.230469 185.648438 94.539062 C 185.566406 76.890625 185.507812 59.253906 185.394531 41.605469 C 185.371094 38.746094 185.847656 35.816406 184.394531 33.070312 C 183.984375 32.292969 184.210938 31.167969 184.203125 30.207031 C 184.15625 15.222656 184.128906 0.234375 184.097656 -14.746094 C 184.097656 -15.46875 184.082031 -16.21875 184.292969 -16.890625 C 184.589844 -17.828125 185.222656 -18.566406 186.257812 -18.828125 C 186.519531 -18.484375 187.019531 -18.128906 187.003906 -17.785156 C 186.855469 -13.902344 188.621094 -10.328125 188.554688 -6.402344 C 188.390625 3.988281 188.589844 14.378906 188.664062 24.769531 C 188.671875 26.460938 188.335938 28.285156 188.851562 29.8125 C 189.976562 33.144531 190.410156 36.308594 188.875 39.617188 C 188.597656 40.210938 188.582031 41.160156 188.867188 41.746094 C 190.527344 45.203125 189.878906 48.867188 189.917969 52.445312 C 190.050781 67.429688 190.035156 82.417969 190.15625 97.398438 C 190.175781 100.480469 190.257812 103.617188 190.78125 106.640625 C 191.363281 109.972656 191.332031 113.285156 191.347656 116.625 C 191.414062 134.753906 191.460938 152.878906 191.511719 171.007812 C 191.511719 172.921875 191.511719 174.84375 191.511719 177.242188 C 193.007812 177.496094 193.703125 177.714844 194.394531 177.71875 C 200.4375 177.734375 206.480469 177.71875 212.523438 177.667969 C 212.953125 177.667969 213.386719 177.371094 214.101562 177.101562 C 215.167969 171.417969 216.382812 165.609375 217.574219 159.785156 C 219.390625 150.910156 220.359375 141.855469 223.050781 133.160156 C 223.320312 124.476562 226.949219 116.394531 227.632812 107.78125 C 227.804688 105.621094 228.773438 103.648438 229.21875 101.539062 C 229.816406 98.714844 230.613281 95.976562 230.523438 93.054688 C 230.5 92.332031 230.441406 91.527344 230.726562 90.902344 C 233.953125 83.566406 233.675781 75.4375 235.925781 67.863281 C 236.855469 64.71875 237.296875 61.261719 237.578125 58 C 238.003906 53.105469 240.714844 48.921875 241.042969 44.078125 C 241.105469 43.199219 242.324219 42.820312 243.40625 42.984375 C 244.242188 43.109375 244.703125 43.640625 244.882812 44.339844 C 245.054688 45.023438 245.230469 45.859375 245 46.476562 C 243.316406 51.011719 243.847656 55.980469 242.273438 60.527344 C 240.621094 65.308594 240.867188 70.476562 239.316406 75.265625 C 238.421875 78.03125 237.824219 80.800781 237.757812 83.730469 C 237.730469 84.875 237.074219 86 236.796875 87.164062 C 236.097656 90.1875 234.652344 93.039062 234.914062 96.289062 C 234.988281 97.203125 234.636719 98.171875 234.382812 99.089844 C 232.75 105.078125 231.613281 111.171875 230.515625 117.28125 C 230.007812 120.101562 229.257812 122.84375 228.996094 125.742188 C 228.742188 128.558594 228.019531 131.410156 227.015625 134.070312 C 225.972656 136.816406 226.917969 139.9375 225.136719 142.472656 C 223.789062 151.460938 221.753906 160.296875 219.289062 169.058594 C 218.585938 171.539062 218.929688 174.300781 217.605469 176.601562 C 219.347656 178.070312 220.964844 179.128906 222.976562 179.054688 C 229.777344 178.800781 236.296875 180.355469 242.832031 181.945312 C 243.710938 182.160156 244.695312 181.972656 245.828125 181.972656 C 247.488281 178.039062 249.261719 174.367188 250.617188 170.554688 C 255.023438 158.113281 260.089844 145.964844 265.417969 133.898438 C 269.574219 124.476562 273.164062 114.800781 277.121094 105.285156 C 279.148438 100.414062 281.429688 95.65625 283.632812 90.859375 C 283.820312 90.449219 284.246094 90.082031 284.652344 89.867188 C 285.042969 89.660156 285.578125 89.523438 285.988281 89.613281 C 286.742188 89.792969 287.277344 90.410156 287.105469 91.179688 C 286.6875 93.035156 286.367188 94.96875 285.570312 96.667969 C 282.089844 104.050781 279.714844 111.894531 276.003906 119.195312 C 273.84375 123.449219 272.367188 128.050781 270.691406 132.535156 C 268.433594 138.570312 265.492188 144.304688 263.128906 150.300781 C 259 160.789062 254.292969 171.039062 249.851562 181.40625 C 249.6875 181.796875 249.828125 182.324219 249.828125 183.105469 C 253.671875 184.214844 257.601562 185.238281 261.453125 186.503906 C 264.855469 187.621094 268.210938 188.921875 271.519531 190.308594 C 273.632812 191.195312 275.242188 190.769531 276.660156 189.09375 C 277.589844 187.992188 278.695312 186.988281 279.453125 185.78125 C 282.507812 180.894531 285.667969 176.050781 288.363281 170.972656 C 289.742188 168.371094 291.894531 166.472656 293.394531 163.96875 C 298.8125 154.910156 304.613281 146.085938 310.375 137.234375 C 313.117188 133.019531 316.148438 128.988281 318.957031 124.816406 C 320.566406 122.433594 321.9375 119.886719 323.515625 117.488281 C 328.414062 110.078125 333.398438 102.722656 338.261719 95.289062 C 341.152344 90.871094 343.820312 86.3125 346.691406 81.890625 C 349.042969 78.253906 351.027344 76.964844 351.933594 78.210938 C 353.632812 80.542969 351.710938 82.507812 350.660156 84.09375 C 344.1875 93.90625 337.4375 103.542969 330.835938 113.28125 C 329.628906 115.058594 328.679688 117.019531 327.585938 118.882812 C 324.292969 124.453125 320.613281 129.800781 317.011719 135.148438 C 309.914062 145.703125 303.175781 156.5 295.914062 166.941406 C 290.703125 174.429688 285.691406 182.046875 280.625 189.640625 C 279.960938 190.628906 279.542969 191.792969 278.902344 193.109375 C 287.6875 197.996094 297.222656 201.503906 305.324219 208.023438 C 306.953125 206.457031 308.535156 205.007812 310.054688 203.484375 C 325.761719 187.738281 341.472656 172 357.144531 156.222656 C 359.339844 154.011719 361.554688 151.84375 363.320312 149.175781 C 364.890625 146.800781 367.238281 144.929688 369.324219 142.910156 C 369.996094 142.257812 370.882812 141.792969 371.722656 141.355469 C 372.722656 140.832031 373.632812 139.722656 374.957031 140.683594 C 375.6875 141.214844 375.40625 142.480469 374.175781 143.761719 C 372.5 145.503906 370.785156 147.210938 369.078125 148.921875 C 359 159.007812 348.910156 169.09375 338.820312 179.171875 C 330.269531 187.71875 321.707031 196.246094 313.152344 204.78125 C 312.125 205.808594 311.089844 206.816406 310.089844 207.875 C 308.636719 209.414062 308.839844 210.628906 310.71875 212.007812 C 312.265625 213.140625 313.792969 214.292969 315.351562 215.40625 C 321.082031 219.472656 325.960938 224.476562 330.746094 229.347656 C 332.964844 229.667969 333.613281 227.597656 335.140625 226.964844 C 336.421875 226.4375 337.40625 225.214844 338.539062 224.320312 C 342.503906 221.207031 346.503906 218.144531 350.4375 214.996094 C 353.820312 212.289062 357.152344 209.527344 360.472656 206.75 C 364.160156 203.65625 367.8125 200.523438 371.484375 197.414062 C 372.507812 196.550781 373.074219 196.730469 375.179688 198.585938 Z M 325.203125 267.511719 C 322.863281 271.121094 319.613281 273.148438 318.128906 276.53125 C 314.851562 278.207031 312.625 281.179688 309.75 283.339844 C 301.261719 289.722656 292.230469 295.109375 282.164062 298.691406 C 278.789062 299.890625 275.773438 301.9375 272.226562 302.878906 C 265.3125 304.703125 258.710938 307.554688 251.617188 308.890625 C 244.828125 310.164062 238.078125 311.636719 231.285156 312.902344 C 226.023438 313.878906 220.6875 313.5 215.5625 314.484375 C 203.796875 316.742188 191.996094 315.085938 180.238281 315.59375 C 173.882812 313.78125 167.347656 314.402344 160.875 314.074219 C 158.257812 313.945312 155.890625 312.234375 153.140625 312.679688 C 147.207031 310.773438 141.007812 310.097656 134.960938 308.710938 C 127.679688 307.050781 120.722656 304.480469 113.746094 302.035156 C 104.449219 298.773438 95.789062 294.09375 87.609375 288.492188 C 84.972656 286.691406 82.765625 284.546875 80.5 282.414062 C 75.949219 278.117188 71.382812 273.796875 68.347656 268.246094 C 68.15625 266.625 69.554688 266.386719 70.449219 265.671875 C 71.390625 264.917969 72.394531 264.152344 73.058594 263.175781 C 76.894531 257.527344 81.753906 252.96875 87.273438 248.976562 C 90.382812 246.734375 92.847656 243.726562 95.933594 241.355469 C 100.894531 237.535156 106.183594 234.257812 111.460938 230.9375 C 122.746094 223.820312 139.550781 217.296875 153.140625 213.765625 C 159.167969 212.203125 165.367188 211.644531 171.304688 209.816406 C 178.71875 210.019531 185.96875 207.957031 193.410156 208.222656 C 195.847656 208.3125 198.222656 209.429688 200.4375 209.164062 C 203.132812 208.835938 205.578125 209.804688 208.1875 209.617188 C 210.585938 209.445312 213.082031 209.363281 215.414062 209.832031 C 229.941406 212.761719 244.335938 216.046875 258.113281 221.847656 C 270.332031 226.996094 282.15625 232.8125 293.089844 240.253906 C 303.40625 247.285156 313.710938 254.429688 322.058594 263.917969 C 323.003906 264.992188 323.941406 266.074219 325.207031 267.511719 Z M 242.625 223.472656 C 242.90625 223.859375 243.109375 224.378906 243.488281 224.597656 C 247.832031 227.105469 252.570312 228.96875 256.28125 232.539062 C 256.542969 232.789062 257.75 232.46875 258.167969 232.0625 C 258.808594 231.433594 259.148438 230.496094 258.941406 230.855469 C 259.679688 228.1875 259.113281 226.9375 258.011719 226.464844 C 253.84375 224.671875 249.605469 223.0625 245.359375 221.476562 C 244.753906 221.253906 243.949219 221.542969 243.25 221.632812 C 242.78125 221.691406 242.324219 223.0625 242.625 223.472656 Z M 242.339844 231.105469 C 242.320312 231.507812 242.617188 232.074219 242.945312 232.320312 C 244.480469 233.46875 246.023438 234.628906 247.660156 235.613281 C 250.796875 237.484375 253.398438 239.859375 255.238281 243.03125 C 256.667969 242.496094 256.542969 241.230469 256.675781 240.054688 C 256.988281 237.417969 256.386719 235.503906 253.628906 234.257812 C 250.367188 232.78125 247.355469 230.742188 244.203125 229.007812 C 243.882812 228.828125 243.078125 228.925781 242.921875 229.164062 C 242.570312 229.722656 242.371094 230.4375 242.332031 231.105469 Z M 241.089844 236.902344 C 241.171875 237.34375 241.207031 237.921875 241.5 238.167969 C 243.144531 239.5625 244.84375 240.894531 246.550781 242.214844 C 248.636719 243.824219 250.738281 245.425781 252.882812 246.964844 C 253.203125 247.195312 253.785156 247.054688 254.253906 247.085938 C 255.4375 245.960938 255.132812 244.46875 255.238281 243.078125 C 254.539062 242.980469 253.726562 243.0625 253.175781 242.71875 C 249.6875 240.613281 246.265625 238.390625 242.816406 236.222656 C 242.28125 235.882812 241 236.386719 241.097656 236.902344 Z M 238.847656 244.753906 C 239.003906 244.933594 239.152344 245.117188 239.324219 245.289062 C 242.890625 248.789062 246.46875 252.292969 250.015625 255.769531 C 250.527344 255.40625 251.035156 255.210938 251.253906 254.855469 C 251.980469 253.632812 252.609375 252.351562 253.25 251.144531 C 252.765625 249.507812 251.265625 249.1875 250.074219 248.441406 C 246.863281 246.414062 243.710938 244.300781 240.546875 242.214844 C 239.882812 241.773438 239.242188 241.820312 238.59375 242.226562 C 237.988281 242.617188 238.117188 243.933594 238.839844 244.753906 Z M 197.972656 290.511719 C 198.96875 291.019531 199.765625 291.613281 200.660156 291.832031 C 202.890625 292.382812 204.609375 290.609375 206.734375 290.460938 C 205.4375 286.058594 204.125 281.8125 202.964844 277.523438 C 202.636719 276.308594 202.480469 275.191406 200.953125 275.09375 C 199.492188 274.996094 198.777344 275.90625 198.695312 277.960938 C 198.539062 282.164062 199.035156 286.402344 197.964844 290.511719 Z M 209.75 289.3125 C 211.828125 289.203125 213.9375 290.007812 216.015625 288.105469 C 213.910156 283.859375 211.792969 279.585938 209.660156 275.316406 C 209.558594 275.109375 209.347656 274.953125 209.214844 274.75 C 208.699219 274 207.136719 273.5 206.726562 274.074219 C 206.347656 274.601562 205.949219 275.421875 206.09375 275.980469 C 207.210938 280.351562 208.453125 284.6875 209.742188 289.320312 Z M 217.777344 283.988281 C 218.050781 284.628906 218.453125 285.320312 218.988281 285.722656 C 219.503906 286.101562 220.390625 286.429688 220.914062 286.238281 C 222.203125 285.761719 223.386719 284.976562 224.859375 284.171875 C 222.082031 279.683594 219.511719 275.4375 216.828125 271.273438 C 216.234375 270.347656 215.0625 270.5625 214.214844 270.996094 C 213.261719 271.480469 212.96875 272.5 213.351562 273.453125 C 214.765625 276.984375 216.253906 280.492188 217.769531 283.988281 Z M 226.292969 279.972656 C 226.761719 280.722656 227.625 281.230469 228.25 281.804688 C 229.726562 280.992188 230.84375 280.144531 231.542969 278.734375 C 229.921875 276.507812 228.347656 274.183594 226.589844 272.007812 C 225.25 270.347656 223.699219 268.859375 222.195312 267.339844 C 221.664062 266.796875 220.988281 266.691406 220.359375 267.265625 C 219.839844 267.742188 219.273438 268.253906 219.742188 269.050781 C 221.902344 272.710938 224.042969 276.375 226.285156 279.980469 Z M 234.398438 277.1875 C 235.695312 276.375 236.828125 275.5625 237.332031 273.839844 C 233.585938 270.394531 231.457031 265.34375 226.96875 262.355469 C 224.832031 264.277344 224.503906 265.035156 225.734375 266.214844 C 229.144531 269.46875 231.417969 273.609375 234.398438 277.195312 Z M 238.652344 271.503906 C 239.507812 271.101562 240.410156 270.75 241.238281 270.273438 C 241.9375 269.871094 241.976562 269.125 241.828125 268.402344 C 241.78125 268.179688 241.632812 267.949219 241.46875 267.785156 C 238.21875 264.589844 234.972656 261.402344 231.707031 258.222656 C 231.105469 257.632812 230.351562 257.683594 229.847656 258.265625 C 229.355469 258.824219 229.363281 259.5625 229.875 260.203125 C 230.023438 260.390625 230.160156 260.589844 230.335938 260.753906 C 233.675781 263.882812 236.039062 267.761719 238.667969 271.496094 Z M 243.382812 265.835938 C 243.503906 265.960938 244.351562 265.691406 244.574219 265.394531 C 245.410156 264.300781 245.253906 263.078125 244.40625 262.109375 C 241.445312 258.734375 238.0625 255.875 234.019531 253.683594 C 233.898438 254.378906 233.59375 255.027344 233.789062 255.242188 C 236.9375 258.816406 240.136719 262.347656 243.382812 265.835938 Z M 247.152344 260.054688 C 248.152344 259.808594 248.757812 259.183594 248.996094 257.914062 C 245.097656 254.644531 241.097656 251.300781 237.058594 247.910156 C 237.027344 250.667969 237.386719 251.085938 247.152344 260.054688 Z M 152.582031 219.21875 C 152.992188 220.9375 153.617188 222.535156 153.699219 224.148438 C 154.078125 231.496094 156.976562 238.09375 159.734375 244.695312 C 162.378906 251.027344 167.050781 255.90625 172.019531 260.546875 C 179.226562 267.277344 187.808594 270.238281 197.496094 270.476562 C 198.457031 270.496094 199.460938 270.527344 200.378906 270.289062 C 209.085938 268.070312 217.3125 264.820312 223.496094 257.960938 C 226.695312 254.40625 230.007812 250.765625 231.707031 246.234375 C 232.640625 243.753906 233.734375 241.371094 234.800781 238.964844 C 237.167969 233.601562 238.175781 227.992188 237.878906 222.144531 C 237.78125 220.195312 236.976562 219.21875 234.941406 218.5625 C 227.394531 216.140625 219.460938 215.738281 211.734375 214.25 C 209.394531 213.804688 206.914062 214.085938 204.5 214.003906 C 202.351562 213.929688 200.257812 214.003906 198.113281 213.191406 C 196.003906 212.394531 193.605469 214.382812 191.25 212.9375 C 190.640625 212.566406 189.425781 213.175781 188.484375 213.339844 C 187.316406 213.550781 186.152344 213.914062 184.976562 213.960938 C 181.601562 214.085938 178.195312 214.324219 174.835938 214.085938 C 171.125 213.824219 167.800781 215.441406 164.203125 215.800781 C 160.300781 216.1875 156.121094 216.664062 152.589844 219.203125 Z M 149.996094 262.789062 C 153.058594 258.78125 153.78125 253.675781 156.261719 249.402344 C 156.566406 248.871094 155.890625 247.652344 155.410156 247.769531 C 154.988281 247.875 154.398438 247.972656 154.210938 248.277344 C 152.246094 251.503906 150.917969 255.085938 148.503906 258.078125 C 147.34375 259.515625 147.78125 260.472656 150.003906 262.789062 Z M 149.308594 248.941406 C 146.351562 250.773438 145.019531 253.378906 145.382812 257.902344 C 147.125 254.363281 148.988281 251.992188 149.308594 248.941406 Z M 150.769531 246.027344 C 149.292969 246.445312 149.421875 247.667969 149.382812 248.8125 C 150.761719 248.335938 150.671875 247.136719 150.769531 246.027344 Z M 152.820312 242.003906 C 152.648438 242.339844 152.484375 242.683594 152.3125 243.019531 C 152.738281 242.824219 153.660156 242.914062 152.820312 242.003906 Z M 155.734375 259.449219 C 155.570312 259.761719 155.410156 260.082031 155.25 260.394531 C 155.652344 260.234375 156.46875 260.316406 155.734375 259.449219 Z M 152.511719 264.730469 C 152.402344 264.941406 152.820312 265.433594 152.996094 265.796875 C 153.140625 265.625 153.371094 265.476562 153.40625 265.28125 C 153.527344 264.6875 153.578125 264.082031 153.652344 263.480469 C 153.242188 263.882812 152.773438 264.246094 152.511719 264.730469 Z M 153.742188 263.300781 C 155.152344 262.855469 155.007812 261.640625 155.113281 260.539062 C 153.742188 261 153.832031 262.191406 153.742188 263.300781 Z M 155.261719 270.550781 C 155.300781 270.757812 155.488281 270.945312 155.605469 271.136719 C 155.882812 270.9375 156.351562 270.773438 156.386719 270.535156 C 156.53125 269.617188 156.53125 268.6875 156.582031 267.761719 C 155.203125 268.234375 155.03125 269.304688 155.261719 270.550781 Z M 156.632812 267.679688 C 158.070312 267.234375 157.921875 265.996094 158.019531 264.894531 C 156.597656 265.335938 156.695312 266.550781 156.632812 267.679688 Z M 157.476562 256.953125 L 157.363281 256.53125 L 157.148438 256.902344 L 157.484375 256.953125 Z M 158.101562 264.753906 C 159.441406 264.277344 159.390625 263.101562 159.472656 261.996094 C 158.109375 262.46875 158.160156 263.636719 158.101562 264.753906 Z M 159.003906 253.96875 L 158.699219 253.714844 L 158.628906 254.125 Z M 158.519531 274.296875 C 158.890625 274.878906 159.421875 275.601562 160 275.734375 C 160.472656 275.839844 161.582031 275.21875 161.625 274.832031 C 162.066406 270.945312 164.113281 267.613281 165.210938 263.972656 C 165.464844 263.117188 165.605469 262.050781 164.570312 260.917969 C 162.460938 265 160.398438 268.949219 158.398438 272.933594 C 158.222656 273.289062 158.296875 273.945312 158.519531 274.296875 Z M 160.917969 259.09375 C 159.570312 259.570312 159.667969 260.761719 159.546875 261.847656 C 160.882812 261.371094 160.777344 260.164062 160.917969 259.09375 Z M 161.507812 258.027344 C 161.351562 258.332031 161.195312 258.644531 161.039062 258.953125 C 161.402344 258.765625 162.230469 258.855469 161.507812 258.027344 Z M 164.605469 280.1875 C 167.421875 276.03125 169.078125 271.347656 170.777344 266.683594 C 170.851562 266.476562 170.714844 266.207031 170.746094 265.96875 C 170.851562 265.007812 170.933594 266.15625 170.285156 265.445312 C 170.054688 265.199219 169.113281 265.140625 169.03125 265.289062 C 166.863281 269.28125 164.660156 273.261719 162.722656 277.363281 C 162.171875 278.542969 163.289062 279.554688 164.597656 280.179688 Z M 168.546875 282.601562 C 168.75 282.953125 169.253906 283.128906 169.621094 283.382812 C 170.058594 283.273438 170.695312 283.316406 170.910156 283.035156 C 173.875 279.234375 174.835938 274.542969 176.511719 270.167969 C 176.550781 270.078125 175.851562 269.542969 175.460938 269.492188 C 175.058594 269.4375 174.410156 269.582031 174.203125 269.878906 C 171.714844 273.371094 169.976562 277.269531 168.382812 281.222656 C 168.226562 281.609375 168.324219 282.222656 168.539062 282.59375 Z M 174.21875 285.453125 C 175.386719 286.453125 176.355469 287.472656 178.046875 287.128906 C 178.621094 284.902344 179.113281 282.59375 179.828125 280.367188 C 180.617188 277.910156 181.617188 275.511719 182.519531 273.121094 C 182.042969 272.246094 181.488281 271.511719 180.304688 271.285156 C 178.285156 276.007812 176.246094 280.761719 174.226562 285.460938 Z M 180.445312 288.800781 C 181.921875 289.289062 183.449219 289.796875 185.238281 290.386719 C 187.832031 285.394531 187.605469 279.675781 189.925781 274.742188 C 186.792969 273.460938 186.445312 273.527344 185.746094 275.300781 C 183.992188 279.757812 182.242188 284.21875 180.445312 288.792969 Z M 192.910156 291.53125 C 193.792969 291.332031 194.589844 290.765625 195.578125 290.289062 C 195.578125 285.804688 195.585938 281.523438 195.566406 277.230469 C 195.566406 276.777344 195.386719 276.316406 195.222656 275.882812 C 195.15625 275.695312 194.910156 275.441406 194.753906 275.449219 C 194.3125 275.464844 193.664062 275.449219 193.484375 275.71875 C 191.003906 279.300781 190.660156 283.734375 188.859375 287.613281 C 187.785156 289.917969 190.199219 292.160156 192.917969 291.539062 Z M 150.835938 245.90625 C 152.199219 245.429688 152.15625 244.238281 152.230469 243.113281 C 150.6875 243.507812 150.875 244.761719 150.835938 245.90625 Z M 150.105469 234.785156 C 149.601562 235.25 148.871094 235.613281 148.617188 236.195312 C 146.792969 240.277344 144.90625 244.320312 142.542969 248.136719 C 142.3125 248.515625 142.230469 249.042969 142.238281 249.5 C 142.246094 249.945312 142.3125 250.570312 142.605469 250.808594 C 143.335938 251.40625 143.902344 250.699219 144.160156 250.199219 C 146.335938 245.996094 148.476562 241.773438 150.53125 237.519531 C 150.933594 236.6875 150.925781 235.671875 150.105469 234.792969 Z M 148.652344 223.105469 C 147.550781 225.96875 146.917969 228.539062 145.195312 230.601562 C 144.734375 231.152344 144.144531 231.71875 143.996094 232.367188 C 143.304688 235.480469 141.6875 238.0625 139.871094 240.621094 C 138.78125 242.152344 139.914062 243.265625 141.523438 244.074219 C 143.550781 239.800781 145.191406 235.359375 147.582031 231.234375 C 148.765625 229.183594 150.195312 226.539062 148.660156 223.105469 Z M 144.496094 221.363281 C 142.425781 224.589844 140.578125 227.949219 138.609375 231.242188 C 137.539062 233.027344 137.515625 234.824219 138.527344 237.097656 C 139.929688 234.242188 141.1875 231.671875 142.453125 229.109375 C 142.984375 228.03125 143.503906 226.941406 144.09375 225.898438 C 144.792969 224.648438 145.613281 223.464844 146.277344 222.191406 C 146.753906 221.273438 148.585938 221.804688 148.476562 220.222656 C 146.761719 219.652344 145.332031 220.097656 144.511719 221.371094 Z M 136.441406 224.351562 C 136.382812 225.742188 136.390625 227.144531 136.496094 228.539062 C 136.539062 229.183594 136.933594 229.339844 137.246094 229.050781 C 137.871094 227.339844 138.492188 225.625 139.117188 223.917969 C 137.367188 223.179688 136.496094 223.335938 136.449219 224.359375 Z M 320.179688 267.191406 C 309.398438 255.152344 282.582031 236.878906 264.34375 229.164062 C 263.828125 230.472656 262.882812 231.808594 262.875 233.140625 C 262.859375 236.113281 261.816406 238.816406 261.117188 241.582031 C 257.292969 256.558594 250.289062 269.78125 238.914062 280.457031 C 237 282.25 234.621094 283.578125 232.75 285.410156 C 227.765625 290.289062 221 291.808594 215.136719 295.011719 C 214.734375 295.226562 214.183594 295.347656 213.738281 295.28125 C 210.503906 294.832031 207.730469 296.941406 204.542969 296.851562 C 201.160156 296.753906 197.777344 296.957031 194.394531 296.910156 C 191.519531 296.875 188.566406 297.164062 185.921875 295.585938 C 181.839844 295.867188 178.644531 293.261719 175.03125 292.078125 C 168.578125 289.960938 162.960938 285.984375 158.101562 281.34375 C 153.800781 277.246094 150.152344 272.425781 146.507812 267.703125 C 142.671875 262.726562 140.25 256.953125 137.949219 251.128906 C 134.945312 243.523438 132.917969 235.6875 131.90625 227.582031 C 131.800781 226.777344 131.449219 226.28125 130.316406 225.960938 C 124.625 228.320312 119.015625 231.496094 113.507812 234.808594 C 105.691406 239.515625 98.40625 244.96875 91.296875 250.734375 C 86.582031 254.5625 82.484375 258.9375 78.035156 262.980469 C 76.210938 264.636719 74.964844 266.652344 73.847656 269.65625 C 78.242188 274.40625 82.347656 279.273438 87.402344 282.960938 C 96.15625 289.351562 105.679688 294.503906 115.996094 298 C 121.199219 299.765625 126.175781 302.214844 131.667969 303.132812 C 135.429688 303.765625 139.074219 304.933594 142.859375 305.589844 C 148.980469 306.65625 154.957031 308.5625 161.269531 308.382812 C 161.746094 308.367188 162.3125 308.332031 162.699219 308.546875 C 165.628906 310.183594 168.851562 309.886719 171.929688 309.664062 C 175.410156 309.410156 178.523438 310.921875 181.886719 311.042969 C 194.589844 311.503906 207.234375 310.675781 219.875 309.589844 C 220.351562 309.550781 220.875 309.515625 221.277344 309.292969 C 223.519531 308.046875 225.964844 308.382812 228.355469 308.25 C 229.800781 308.167969 231.269531 308.167969 232.667969 307.875 C 236.164062 307.136719 239.589844 306.019531 243.117188 305.484375 C 250.933594 304.285156 258.507812 302.183594 266.058594 299.933594 C 277.613281 296.488281 288.351562 291.332031 298.816406 285.296875 C 307.164062 280.484375 313.757812 274.035156 320.179688 267.199219 Z M 266.964844 337.238281 C 266.964844 342.5 262.757812 346.253906 257.019531 346.097656 C 252.972656 345.984375 249.433594 341.910156 249.375 337.300781 C 249.308594 332.121094 253.0625 328.546875 258.496094 328.589844 C 263.425781 328.636719 266.957031 332.234375 266.964844 337.238281 Z M 262.382812 336.636719 C 262.191406 334.699219 261.167969 333.515625 259.382812 333.148438 C 257.070312 332.679688 255.328125 333.285156 254.367188 334.894531 C 253.53125 336.285156 253.792969 337.976562 255.164062 339.429688 C 255.8125 340.113281 256.542969 340.761719 257.339844 341.253906 C 258.890625 342.214844 261.527344 341.195312 262.101562 339.445312 C 262.316406 338.78125 262.359375 338.058594 262.390625 337.878906 C 262.390625 337.113281 262.414062 336.875 262.390625 336.636719 Z M 336.234375 309.179688 C 336.421875 309.53125 336.296875 310.140625 336.140625 310.566406 C 334.707031 314.417969 332.390625 317.460938 327.964844 317.6875 C 322.75 317.945312 318.792969 314.960938 318.949219 310.707031 C 318.988281 309.738281 318.921875 308.769531 318.949219 307.808594 C 319.085938 303.59375 321.476562 301.179688 325.6875 300.984375 C 326.171875 300.964844 326.65625 300.984375 327.949219 300.984375 C 329.054688 301.007812 330.855469 300.984375 332.621094 302.257812 C 335.082031 304.03125 335.015625 306.898438 336.234375 309.195312 Z M 330.691406 310.347656 C 331.066406 307.496094 329.351562 305.960938 327.214844 304.644531 C 325.351562 305.121094 323.488281 305.597656 323.488281 308.09375 C 323.488281 311.300781 325.195312 312.882812 328.441406 312.660156 C 329.671875 312.578125 330.527344 311.617188 330.691406 310.347656 Z M 69.542969 303.175781 C 71.554688 304.972656 70.6875 307.792969 72.328125 309.3125 C 72.082031 310.15625 71.984375 310.617188 71.8125 311.050781 C 70.824219 313.566406 69.242188 315.539062 66.902344 317.046875 C 61.023438 320.816406 54.347656 316.480469 53.679688 310.253906 C 53.605469 309.542969 53.515625 308.703125 53.8125 308.113281 C 55.152344 305.5 57.261719 303.519531 59.585938 301.78125 C 61.03125 300.695312 62.8125 301.074219 64.46875 300.941406 C 66.570312 300.769531 68.042969 301.84375 69.542969 303.183594 Z M 66.089844 307.257812 C 65.273438 305.910156 63.953125 305.460938 62.484375 305.476562 C 60.59375 305.335938 59.199219 306.074219 58.363281 307.726562 C 57.648438 309.140625 58.082031 310.667969 59.59375 312.175781 C 60.09375 312.671875 60.636719 313.148438 61.226562 313.539062 C 62.550781 314.394531 64.707031 313.925781 65.703125 312.613281 C 66.777344 311.214844 66.992188 308.734375 66.097656 307.257812 Z M 124.289062 327.316406 C 125.78125 328.726562 126.464844 330.445312 126.25 332.285156 C 126.011719 338.273438 121.800781 341.515625 117.160156 341.761719 C 112.167969 342.023438 108.761719 338.8125 108.613281 334.15625 C 108.539062 331.765625 108.398438 329.367188 110.492188 327.503906 C 113.128906 325.15625 116.0625 323.839844 119.640625 324.160156 C 121.777344 324.351562 122.902344 326.015625 124.28125 327.316406 Z M 118.507812 328.554688 C 117.898438 328.226562 117.21875 327.996094 116.945312 327.875 C 113.078125 328.242188 113.121094 331.308594 111.988281 334.171875 C 113.441406 335.363281 114.417969 336.539062 115.667969 337.074219 C 116.9375 337.621094 118.597656 337.6875 119.722656 336.554688 C 122.652344 333.613281 122.152344 330.519531 118.507812 328.5625 Z M 188.398438 340.777344 C 192.160156 346.269531 189.246094 352.621094 182.785156 353.5 C 178.300781 354.121094 175.367188 352.011719 173.234375 348.613281 C 171.78125 346.296875 171.976562 343.4375 173.035156 341.015625 C 174.144531 338.484375 176.289062 336.980469 179.320312 337.128906 C 181.460938 337.230469 183.613281 337.152344 185.839844 337.152344 C 187.035156 338.839844 187.726562 339.800781 188.398438 340.777344 Z M 180.835938 340.40625 C 180.601562 340.367188 180.363281 340.40625 180.3125 340.40625 C 178.792969 340.523438 177.371094 341.703125 177.035156 342.96875 C 176.132812 346.410156 178.671875 349.738281 182.234375 349.785156 C 183.046875 349.792969 185.222656 348.0625 185.394531 347.273438 C 186.066406 344.191406 183.898438 340.914062 180.839844 340.40625 Z M 186.167969 244.195312 C 182.683594 238.875 183.65625 232.285156 187.734375 228.402344 C 189.289062 226.921875 190.617188 225.132812 192.6875 224.292969 C 201.4375 220.753906 210.234375 227.398438 210.609375 235.742188 C 210.855469 241.261719 208.679688 245.015625 204.617188 247.964844 C 200.675781 250.832031 196.324219 251.472656 191.765625 249.1875 C 191.140625 248.871094 190.363281 248.859375 189.46875 248.664062 C 188.144531 246.882812 187.078125 245.589844 186.160156 244.1875 Z M 192.175781 236.648438 C 194.070312 238.039062 195.625 240.101562 196.832031 242.832031 C 198.738281 240.582031 200.535156 238.464844 202.433594 236.21875 C 201.605469 235.300781 200.503906 234.339844 199.746094 233.15625 C 198.992188 231.992188 198.589844 230.601562 198.039062 229.3125 C 196.800781 232.058594 194.847656 234.503906 192.175781 236.648438 Z M 192.175781 236.648438 " fill-opacity="1" fill-rule="nonzero"/></svg>